<?xml version="1.0" encoding="utf-8"?>
<!-- Generator: Adobe Illustrator 27.5.0, SVG Export Plug-In . SVG Version: 6.00 Build 0)  -->
<svg version="1.1" xmlns="http://www.w3.org/2000/svg" xmlns:xlink="http://www.w3.org/1999/xlink" x="0px" y="0px"
	 viewBox="0 0 3710 3710" style="enable-background:new 0 0 3710 3710;" xml:space="preserve">
<g id="Background">
	<g>
		<g>
			<rect style="fill:#FFFFFF;" width="3710" height="3710"/>
		</g>
	</g>
</g>
<g id="Illustration">
	<g>
		<linearGradient id="SVGID_1_" gradientUnits="userSpaceOnUse" x1="3487.7412" y1="3292.8938" x2="1405.4032" y2="1470.8495">
			<stop  offset="0" style="stop-color:#DAE3FE"/>
			<stop  offset="1" style="stop-color:#E9EFFD"/>
		</linearGradient>
		<path style="fill:url(#SVGID_1_);" d="M3133.852,2346.625c-269.122,633.674-986,988.662-1607.679,892.906
			c-101.16-15.582-378.492-61.997-624.031-280.967C429.463,2537.03,328.377,1702.338,709.673,1114.111
			c277.517-428.126,774.993-670.816,1247.694-658.677c101.82,2.615,492.035,18.73,834.967,301.504
			c50.37,41.534,161.466,140.23,261.59,296.805C3289.033,1421.411,3309.242,1933.652,3133.852,2346.625z"/>
		<g>
			<path style="fill:#7D97F4;" d="M3202.822,2077.601c-0.126-6.42-3.139-12.526-8.365-16.952
				c-5.226-4.426-12.229-6.802-19.439-6.598l-583.526,16.592c-14.853,0.423-26.518,11.465-26.075,24.682l28.792,859.999
				c0.437,13.05,12.526,23.392,27.197,23.264l575.667-1.591c7.182-0.061,10.17-6.031,15.179-10.61
				c5.01-4.581,7.757-10.753,7.632-17.144L3202.822,2077.601z"/>
			<g>
				<polygon style="fill:#91B3FA;" points="2665.334,2153.359 2664.424,2131.844 2854.231,2124.289 2855.08,2145.853 				"/>
				<polygon style="fill:#91B3FA;" points="2667.887,2213.635 2666.979,2192.16 2856.614,2184.743 2857.461,2206.267 				"/>
				<polygon style="fill:#91B3FA;" points="2670.436,2273.799 2669.529,2252.365 2858.992,2245.086 2859.838,2266.569 				"/>
				<polygon style="fill:#91B3FA;" points="2672.98,2333.849 2672.075,2312.454 2861.366,2305.314 2862.211,2326.758 				"/>
				<polygon style="fill:#91B3FA;" points="2675.519,2393.789 2674.615,2372.434 2863.736,2365.43 2864.578,2386.833 				"/>
				<polygon style="fill:#91B3FA;" points="2680.583,2513.333 2679.683,2492.058 2868.462,2485.327 2869.302,2506.65 				"/>
				<polygon style="fill:#91B3FA;" points="2688.144,2691.818 2687.249,2670.66 2875.518,2664.336 2876.352,2685.542 				"/>
				<polygon style="fill:#91B3FA;" points="2678.054,2453.616 2677.151,2432.301 2866.101,2425.436 2866.942,2446.798 				"/>
				<polygon style="fill:#91B3FA;" points="2683.108,2572.938 2682.209,2551.702 2870.818,2545.109 2871.657,2566.393 				"/>
				<polygon style="fill:#91B3FA;" points="2685.628,2632.432 2684.731,2611.236 2873.17,2604.778 2874.007,2626.022 				"/>
				<polygon style="fill:#91B3FA;" points="2690.655,2751.092 2689.761,2729.974 2877.861,2723.786 2878.694,2744.952 				"/>
				<polygon style="fill:#91B3FA;" points="2693.162,2810.257 2692.269,2789.179 2880.2,2783.123 2881.032,2804.25 				"/>
				<polygon style="fill:#91B3FA;" points="2695.663,2869.313 2694.772,2848.273 2882.535,2842.352 2883.365,2863.44 				"/>
				<polygon style="fill:#91B3FA;" points="2698.16,2928.259 2697.271,2907.258 2884.865,2901.471 2885.694,2922.519 				"/>
				<polygon style="fill:#91B3FA;" points="2912.899,2143.564 2912.069,2121.985 3102.963,2114.385 3103.731,2136.014 				"/>
				<polygon style="fill:#91B3FA;" points="2915.227,2204.022 2914.399,2182.483 3105.12,2175.022 3105.885,2196.611 				"/>
				<polygon style="fill:#91B3FA;" points="2917.552,2264.365 2916.725,2242.866 3107.271,2235.546 3108.037,2257.095 				"/>
				<polygon style="fill:#91B3FA;" points="2919.872,2324.597 2919.046,2303.138 3109.42,2295.955 3110.184,2317.463 				"/>
				<polygon style="fill:#91B3FA;" points="2922.188,2384.715 2921.364,2363.297 3111.564,2356.253 3112.327,2377.72 				"/>
				<polygon style="fill:#91B3FA;" points="2926.806,2504.615 2925.985,2483.277 3115.84,2476.509 3116.6,2497.896 				"/>
				<polygon style="fill:#91B3FA;" points="2933.702,2683.63 2932.886,2662.411 3122.226,2656.052 3122.98,2677.321 				"/>
				<polygon style="fill:#91B3FA;" points="2924.499,2444.72 2923.677,2423.342 3113.704,2416.437 3114.465,2437.864 				"/>
				<polygon style="fill:#91B3FA;" points="2929.11,2564.398 2928.289,2543.099 3117.973,2536.468 3118.731,2557.816 				"/>
				<polygon style="fill:#91B3FA;" points="2931.408,2624.07 2930.59,2602.812 3120.101,2596.315 3120.858,2617.623 				"/>
				<polygon style="fill:#91B3FA;" points="2935.991,2743.081 2935.177,2721.901 3124.345,2715.677 3125.1,2736.905 				"/>
				<polygon style="fill:#91B3FA;" points="2938.278,2802.42 2937.464,2781.28 3126.462,2775.191 3127.214,2796.38 				"/>
				<polygon style="fill:#91B3FA;" points="2940.559,2861.65 2939.747,2840.548 3128.574,2834.594 3129.325,2855.743 				"/>
				<polygon style="fill:#91B3FA;" points="2942.837,2920.771 2942.026,2899.708 3130.683,2893.886 3131.433,2914.997 				"/>
			</g>
		</g>
		<g>
			
				<linearGradient id="SVGID_00000181087486390509970680000007071140523086403471_" gradientUnits="userSpaceOnUse" x1="2367.645" y1="2445.7344" x2="3003.9473" y2="2445.7344">
				<stop  offset="0" style="stop-color:#4F52FF"/>
				<stop  offset="1" style="stop-color:#4042E2"/>
			</linearGradient>
			<path style="fill:url(#SVGID_00000181087486390509970680000007071140523086403471_);" d="M2978.872,1923.098
				c-0.177-7.327-7.899-13.222-17.364-13.222h-574.083c-9.592,0-19.78,6.077-19.78,13.504v1037.35
				c0,5.543,4.056,10.859,9.125,14.773c5.07,3.915,12.545,6.106,19.706,6.091l580.371-1.226c7.222-0.015,14.283-2.274,19.335-6.271
				c5.052-3.996,7.895-9.409,7.76-15L2978.872,1923.098z"/>
			<g>
				<polygon style="fill:#7D97F4;" points="2649.184,1983.391 2461.389,1982.887 2461.458,1964.695 2649.044,1965.154 				"/>
				<polygon style="fill:#7D97F4;" points="2649.699,2050.4 2461.131,2049.734 2461.202,2031.392 2649.558,2032.013 				"/>
				<polygon style="fill:#7D97F4;" points="2650.219,2117.963 2460.872,2117.131 2460.943,2098.638 2650.076,2099.424 				"/>
				<polygon style="fill:#7D97F4;" points="2650.741,2186.088 2460.61,2185.088 2460.682,2166.441 2650.598,2167.395 				"/>
				<polygon style="fill:#7D97F4;" points="2651.269,2254.78 2460.346,2253.608 2460.419,2234.806 2651.125,2235.93 				"/>
				<polygon style="fill:#7D97F4;" points="2652.338,2393.895 2459.812,2392.372 2459.886,2373.254 2652.191,2374.727 				"/>
				<polygon style="fill:#7D97F4;" points="2653.976,2607.007 2458.994,2604.937 2459.069,2585.329 2653.825,2587.348 				"/>
				<polygon style="fill:#7D97F4;" points="2651.802,2324.046 2460.08,2322.701 2460.153,2303.741 2651.656,2305.039 				"/>
				<polygon style="fill:#7D97F4;" points="2652.88,2464.333 2459.542,2462.632 2459.616,2443.351 2652.731,2445.004 				"/>
				<polygon style="fill:#7D97F4;" points="2653.425,2535.368 2459.269,2533.483 2459.344,2514.04 2653.276,2515.875 				"/>
				<polygon style="fill:#7D97F4;" points="2654.531,2679.259 2458.716,2677 2458.792,2657.223 2654.378,2659.431 				"/>
				<polygon style="fill:#7D97F4;" points="2655.091,2752.131 2458.436,2749.679 2458.514,2729.734 2654.937,2732.133 				"/>
				<polygon style="fill:#7D97F4;" points="2655.656,2825.632 2458.155,2822.985 2458.232,2802.868 2655.5,2805.461 				"/>
				<polygon style="fill:#7D97F4;" points="2656.226,2899.768 2457.87,2896.923 2457.948,2876.631 2656.069,2879.423 				"/>
				<polygon style="fill:#7D97F4;" points="2895.399,1984.051 2706.425,1983.544 2706.22,1965.293 2894.982,1965.756 				"/>
				<polygon style="fill:#7D97F4;" points="2896.932,2051.273 2707.176,2050.603 2706.97,2032.202 2896.511,2032.827 				"/>
				<polygon style="fill:#7D97F4;" points="2898.477,2119.054 2707.933,2118.217 2707.726,2099.664 2898.053,2100.455 				"/>
				<polygon style="fill:#7D97F4;" points="2900.036,2187.399 2708.697,2186.393 2708.486,2167.686 2899.608,2168.646 				"/>
				<polygon style="fill:#7D97F4;" points="2901.607,2256.316 2709.467,2255.136 2709.255,2236.273 2901.176,2237.405 				"/>
				<polygon style="fill:#7D97F4;" points="2904.79,2395.891 2711.025,2394.358 2710.811,2375.177 2904.352,2376.659 				"/>
				<polygon style="fill:#7D97F4;" points="2909.666,2609.723 2713.414,2607.639 2713.193,2587.964 2909.216,2589.997 				"/>
				<polygon style="fill:#7D97F4;" points="2903.192,2325.811 2710.242,2324.456 2710.03,2305.435 2902.757,2306.74 				"/>
				<polygon style="fill:#7D97F4;" points="2906.402,2466.566 2711.814,2464.852 2711.598,2445.508 2905.959,2447.171 				"/>
				<polygon style="fill:#7D97F4;" points="2908.027,2537.84 2712.611,2535.943 2712.392,2516.434 2907.581,2518.281 				"/>
				<polygon style="fill:#7D97F4;" points="2911.319,2682.223 2714.224,2679.948 2714.001,2660.104 2910.865,2662.327 				"/>
				<polygon style="fill:#7D97F4;" points="2912.987,2755.346 2715.041,2752.878 2714.816,2732.864 2912.529,2735.279 				"/>
				<polygon style="fill:#7D97F4;" points="2914.669,2829.104 2715.864,2826.439 2715.638,2806.252 2914.207,2808.863 				"/>
				<polygon style="fill:#7D97F4;" points="2916.365,2903.501 2716.695,2900.636 2716.467,2880.274 2915.9,2883.084 				"/>
			</g>
		</g>
		<path style="fill:#91B3FA;" d="M2063.056,1026.499c-0.334,5.071,119.25-92.921,119.25-92.921l-102.587-154.081l142.339-136.548
			L2096.27,471.295l172.012,188.636l-128.397,120.946c0,0,134.102,191.22,130.947,191.792
			C2267.676,973.241,2063.056,1026.499,2063.056,1026.499z"/>
		<path style="fill:#91B3FA;" d="M1638.473,472.038c2.85,6.583,187.383,162.893,187.383,162.893l-132.035,99.703
			c0,0,187.137,238.626,176.026,233.524c-11.111-5.102-255.728-226.474-255.728-226.474l175.824-111.694L1638.473,472.038z"/>
		<path style="fill:#91B3FA;" d="M2395.433,1140.278c6.099-5.443,109.034-261.083,109.034-261.083l155.177,107.084
			c0,0,191.043-287.964,189.507-274.116c-1.536,13.848-153.312,357.802-153.312,357.802l-183.844-150.153L2395.433,1140.278z"/>
		<g>
			<path style="fill:#7D97F4;" d="M2518.812,2067.884c-0.077-6.594-3.044-12.887-8.237-17.472
				c-5.193-4.584-12.177-7.076-19.389-6.919l-583.633,12.768c-14.856,0.325-26.603,11.581-26.26,25.158l22.323,883.46
				c0.339,13.406,12.35,24.116,27.021,24.093l575.661,2.582c7.182-0.01,10.215-6.119,15.258-10.786
				c5.045-4.668,7.838-10.987,7.761-17.551L2518.812,2067.884z"/>
			<g>
				<polygon style="fill:#91B3FA;" points="1980.771,2141.754 1980.023,2119.651 2169.881,2113.281 2170.568,2135.435 				"/>
				<polygon style="fill:#91B3FA;" points="1982.871,2203.678 1982.125,2181.616 2171.809,2175.387 2172.494,2197.5 				"/>
				<polygon style="fill:#91B3FA;" points="1984.967,2265.488 1984.221,2243.467 2173.733,2237.379 2174.417,2259.448 				"/>
				<polygon style="fill:#91B3FA;" points="1987.059,2327.179 1986.315,2305.2 2175.654,2299.253 2176.337,2321.282 				"/>
				<polygon style="fill:#91B3FA;" points="1989.147,2388.758 1988.404,2366.82 2177.571,2361.011 2178.253,2383 				"/>
				<polygon style="fill:#91B3FA;" points="1993.312,2511.572 1992.572,2489.715 2181.396,2484.185 2182.075,2506.09 				"/>
				<polygon style="fill:#91B3FA;" points="1999.53,2694.937 1998.795,2673.201 2187.105,2668.085 2187.78,2689.869 				"/>
				<polygon style="fill:#91B3FA;" points="1991.232,2450.221 1990.49,2428.324 2179.485,2422.656 2180.166,2444.603 				"/>
				<polygon style="fill:#91B3FA;" points="1995.389,2572.806 1994.65,2550.99 2183.302,2545.6 2183.981,2567.465 				"/>
				<polygon style="fill:#91B3FA;" points="1997.461,2633.927 1996.724,2612.152 2185.206,2606.899 2185.882,2628.724 				"/>
				<polygon style="fill:#91B3FA;" points="2001.595,2755.832 2000.861,2734.136 2189.001,2729.159 2189.675,2750.903 				"/>
				<polygon style="fill:#91B3FA;" points="2003.657,2816.615 2002.923,2794.96 2190.894,2790.117 2191.567,2811.822 				"/>
				<polygon style="fill:#91B3FA;" points="2005.714,2877.285 2004.982,2855.67 2192.783,2850.965 2193.454,2872.629 				"/>
				<polygon style="fill:#91B3FA;" points="2007.767,2937.844 2007.037,2916.268 2194.669,2911.698 2195.339,2933.322 				"/>
				<polygon style="fill:#91B3FA;" points="2228.402,2133.508 2227.734,2111.339 2418.68,2104.931 2419.285,2127.151 				"/>
				<polygon style="fill:#91B3FA;" points="2230.275,2195.616 2229.609,2173.49 2420.38,2167.223 2420.983,2189.401 				"/>
				<polygon style="fill:#91B3FA;" points="2232.146,2257.608 2231.481,2235.522 2422.077,2229.4 2422.68,2251.536 				"/>
				<polygon style="fill:#91B3FA;" points="2234.014,2319.485 2233.349,2297.441 2423.771,2291.457 2424.373,2313.552 				"/>
				<polygon style="fill:#91B3FA;" points="2235.877,2381.245 2235.213,2359.242 2425.461,2353.401 2426.063,2375.454 				"/>
				<polygon style="fill:#91B3FA;" points="2239.593,2504.421 2238.933,2482.5 2428.833,2476.939 2429.432,2498.911 				"/>
				<polygon style="fill:#91B3FA;" points="2245.142,2688.326 2244.486,2666.527 2433.867,2661.383 2434.462,2683.232 				"/>
				<polygon style="fill:#91B3FA;" points="2237.737,2442.89 2237.075,2420.928 2427.149,2415.227 2427.749,2437.24 				"/>
				<polygon style="fill:#91B3FA;" points="2241.447,2565.837 2240.787,2543.956 2430.514,2538.535 2431.112,2560.466 				"/>
				<polygon style="fill:#91B3FA;" points="2243.296,2627.139 2242.638,2605.3 2432.192,2600.015 2432.789,2621.905 				"/>
				<polygon style="fill:#91B3FA;" points="2246.985,2749.401 2246.33,2727.643 2435.539,2722.635 2436.133,2744.443 				"/>
				<polygon style="fill:#91B3FA;" points="2248.825,2810.361 2248.17,2788.643 2437.208,2783.774 2437.8,2805.542 				"/>
				<polygon style="fill:#91B3FA;" points="2250.66,2871.209 2250.007,2849.531 2438.873,2844.799 2439.465,2866.525 				"/>
				<polygon style="fill:#91B3FA;" points="2252.493,2931.945 2251.841,2910.307 2440.535,2905.709 2441.127,2927.396 				"/>
			</g>
		</g>
		<g>
			<circle style="fill:#BDD0FB;" cx="2691.25" cy="2878.542" r="260.633"/>
			<path style="fill:#91B3FA;" d="M2776.979,2861.089h-187.824c-14.696,0-26.61-11.914-26.61-26.61V1229.355
				c0-14.696,11.914-26.61,26.61-26.61h187.824c14.696,0,26.61,11.914,26.61,26.61v1605.124
				C2803.589,2849.175,2791.675,2861.089,2776.979,2861.089z"/>
			<path style="opacity:0.66;fill:#FFFFFF;" d="M2743.221,2898.186h-117.162c-9.167,0-16.599-7.432-16.599-16.599V1290.493
				c0-9.167,7.431-16.599,16.599-16.599h117.162c9.167,0,16.599,7.432,16.599,16.599v1591.094
				C2759.82,2890.754,2752.388,2898.186,2743.221,2898.186z"/>
			<path style="opacity:0.66;fill:#FFFFFF;" d="M2776.282,2653.342V1319.166c0-53.307-42.952-96.522-96.26-96.522l0,0
				c-53.307,0-96.261,43.214-96.261,96.522v1338.389c-81.062,37.818-132.472,118.613-132.472,212.198
				c0,129.814,105.933,235.05,235.748,235.05c129.813,0,233.741-105.235,233.741-235.05
				C2920.777,2772.536,2864.099,2689.113,2776.282,2653.342z"/>
			
				<linearGradient id="SVGID_00000029016953766691067910000003156222079619226499_" gradientUnits="userSpaceOnUse" x1="2692.3777" y1="1635.8253" x2="2682.2429" y2="2826.7021">
				<stop  offset="0" style="stop-color:#FF928E"/>
				<stop  offset="1" style="stop-color:#FE7062"/>
			</linearGradient>
			<path style="fill:url(#SVGID_00000029016953766691067910000003156222079619226499_);" d="M2755.563,2884.48h-135.664
				c-4.058,0-7.348-3.29-7.348-7.348V1486.619c0-4.977,4.035-9.012,9.012-9.012h128.478c7.108,0,12.87,5.762,12.87,12.87v1386.654
				C2762.911,2881.19,2759.621,2884.48,2755.563,2884.48z"/>
			
				<linearGradient id="SVGID_00000088812895027551635670000009739331805855633034_" gradientUnits="userSpaceOnUse" x1="2695.0381" y1="1636.0619" x2="2684.9063" y2="2826.5935">
				<stop  offset="0" style="stop-color:#FF928E"/>
				<stop  offset="1" style="stop-color:#FE7062"/>
			</linearGradient>
			<circle style="fill:url(#SVGID_00000088812895027551635670000009739331805855633034_);" cx="2684.64" cy="2857.908" r="211.48"/>
			<g>
				
					<linearGradient id="SVGID_00000018924436598387361040000008691633049586100865_" gradientUnits="userSpaceOnUse" x1="2820.8838" y1="2610.3738" x2="2986.2131" y2="2610.3738">
					<stop  offset="0" style="stop-color:#FF928E"/>
					<stop  offset="1" style="stop-color:#FE7062"/>
				</linearGradient>
				<path style="fill:url(#SVGID_00000018924436598387361040000008691633049586100865_);" d="M2981.49,2631.764h-155.884
					c-2.598,0-4.723-2.125-4.723-4.723v-33.334c0-2.597,2.125-4.723,4.723-4.723h155.884c2.597,0,4.723,2.125,4.723,4.723v33.334
					C2986.213,2629.638,2984.088,2631.764,2981.49,2631.764z"/>
				
					<linearGradient id="SVGID_00000078036618253463145110000006389988218167552899_" gradientUnits="userSpaceOnUse" x1="2820.8838" y1="2218.823" x2="2986.2131" y2="2218.823">
					<stop  offset="0" style="stop-color:#FF928E"/>
					<stop  offset="1" style="stop-color:#FE7062"/>
				</linearGradient>
				<path style="fill:url(#SVGID_00000078036618253463145110000006389988218167552899_);" d="M2981.49,2240.213h-155.884
					c-2.598,0-4.723-2.125-4.723-4.723v-33.334c0-2.598,2.125-4.723,4.723-4.723h155.884c2.597,0,4.723,2.125,4.723,4.723v33.334
					C2986.213,2238.087,2984.088,2240.213,2981.49,2240.213z"/>
				
					<linearGradient id="SVGID_00000083809790920718901610000003092639488652323208_" gradientUnits="userSpaceOnUse" x1="2820.8838" y1="2512.0107" x2="2935.3113" y2="2512.0107">
					<stop  offset="0" style="stop-color:#FF928E"/>
					<stop  offset="1" style="stop-color:#FE7062"/>
				</linearGradient>
				<path style="fill:url(#SVGID_00000083809790920718901610000003092639488652323208_);" d="M2930.589,2533.4h-104.982
					c-2.598,0-4.723-2.125-4.723-4.723v-33.334c0-2.597,2.125-4.722,4.723-4.722h104.982c2.597,0,4.723,2.125,4.723,4.722v33.334
					C2935.311,2531.275,2933.186,2533.4,2930.589,2533.4z"/>
				
					<linearGradient id="SVGID_00000013185007054120576400000004641089111456869518_" gradientUnits="userSpaceOnUse" x1="2820.8838" y1="2412.8838" x2="2935.3113" y2="2412.8838">
					<stop  offset="0" style="stop-color:#FF928E"/>
					<stop  offset="1" style="stop-color:#FE7062"/>
				</linearGradient>
				<path style="fill:url(#SVGID_00000013185007054120576400000004641089111456869518_);" d="M2930.589,2434.274h-104.982
					c-2.598,0-4.723-2.125-4.723-4.723v-33.334c0-2.598,2.125-4.723,4.723-4.723h104.982c2.597,0,4.723,2.125,4.723,4.723v33.334
					C2935.311,2432.148,2933.186,2434.274,2930.589,2434.274z"/>
				
					<linearGradient id="SVGID_00000029032101273024572900000004765686608335143567_" gradientUnits="userSpaceOnUse" x1="2820.8838" y1="2314.2654" x2="2935.3113" y2="2314.2654">
					<stop  offset="0" style="stop-color:#FF928E"/>
					<stop  offset="1" style="stop-color:#FE7062"/>
				</linearGradient>
				<path style="fill:url(#SVGID_00000029032101273024572900000004765686608335143567_);" d="M2930.589,2335.655h-104.982
					c-2.598,0-4.723-2.125-4.723-4.723v-33.334c0-2.597,2.125-4.723,4.723-4.723h104.982c2.597,0,4.723,2.125,4.723,4.723v33.334
					C2935.311,2333.53,2933.186,2335.655,2930.589,2335.655z"/>
				
					<linearGradient id="SVGID_00000064338822185787789240000002664450792776968094_" gradientUnits="userSpaceOnUse" x1="2822.3821" y1="1809.7609" x2="2987.7112" y2="1809.7609">
					<stop  offset="0" style="stop-color:#FF928E"/>
					<stop  offset="1" style="stop-color:#FE7062"/>
				</linearGradient>
				<path style="fill:url(#SVGID_00000064338822185787789240000002664450792776968094_);" d="M2982.989,1831.151h-155.884
					c-2.597,0-4.722-2.125-4.722-4.723v-33.334c0-2.597,2.125-4.723,4.722-4.723h155.884c2.598,0,4.723,2.125,4.723,4.723v33.334
					C2987.711,1829.026,2985.586,1831.151,2982.989,1831.151z"/>
				
					<linearGradient id="SVGID_00000147185468595135216460000013418444715121201583_" gradientUnits="userSpaceOnUse" x1="2822.3821" y1="2102.9487" x2="2936.8093" y2="2102.9487">
					<stop  offset="0" style="stop-color:#FF928E"/>
					<stop  offset="1" style="stop-color:#FE7062"/>
				</linearGradient>
				<path style="fill:url(#SVGID_00000147185468595135216460000013418444715121201583_);" d="M2932.087,2124.338h-104.982
					c-2.597,0-4.722-2.125-4.722-4.723v-33.334c0-2.597,2.125-4.723,4.722-4.723h104.982c2.597,0,4.723,2.125,4.723,4.723v33.334
					C2936.809,2122.213,2934.684,2124.338,2932.087,2124.338z"/>
				
					<linearGradient id="SVGID_00000137818517948527951240000006403104747802872984_" gradientUnits="userSpaceOnUse" x1="2822.3821" y1="2003.8218" x2="2936.8093" y2="2003.8218">
					<stop  offset="0" style="stop-color:#FF928E"/>
					<stop  offset="1" style="stop-color:#FE7062"/>
				</linearGradient>
				<path style="fill:url(#SVGID_00000137818517948527951240000006403104747802872984_);" d="M2932.087,2025.212h-104.982
					c-2.597,0-4.722-2.125-4.722-4.723v-33.334c0-2.597,2.125-4.723,4.722-4.723h104.982c2.597,0,4.723,2.125,4.723,4.723v33.334
					C2936.809,2023.086,2934.684,2025.212,2932.087,2025.212z"/>
				
					<linearGradient id="SVGID_00000163057108812127387680000003358818370455261878_" gradientUnits="userSpaceOnUse" x1="2822.3821" y1="1905.2035" x2="2936.8093" y2="1905.2035">
					<stop  offset="0" style="stop-color:#FF928E"/>
					<stop  offset="1" style="stop-color:#FE7062"/>
				</linearGradient>
				<path style="fill:url(#SVGID_00000163057108812127387680000003358818370455261878_);" d="M2932.087,1926.593h-104.982
					c-2.597,0-4.722-2.125-4.722-4.723v-33.334c0-2.597,2.125-4.723,4.722-4.723h104.982c2.597,0,4.723,2.125,4.723,4.723v33.334
					C2936.809,1924.468,2934.684,1926.593,2932.087,1926.593z"/>
				
					<linearGradient id="SVGID_00000019671940815974652120000004735697497765530299_" gradientUnits="userSpaceOnUse" x1="2822.3821" y1="1403.8381" x2="2987.7112" y2="1403.8381">
					<stop  offset="0" style="stop-color:#FF928E"/>
					<stop  offset="1" style="stop-color:#FE7062"/>
				</linearGradient>
				<path style="fill:url(#SVGID_00000019671940815974652120000004735697497765530299_);" d="M2982.989,1425.228h-155.884
					c-2.597,0-4.722-2.125-4.722-4.723v-33.334c0-2.598,2.125-4.723,4.722-4.723h155.884c2.598,0,4.723,2.125,4.723,4.723v33.334
					C2987.711,1423.103,2985.586,1425.228,2982.989,1425.228z"/>
				
					<linearGradient id="SVGID_00000070102712830534411200000013927301385370826118_" gradientUnits="userSpaceOnUse" x1="2822.3821" y1="1697.026" x2="2936.8093" y2="1697.026">
					<stop  offset="0" style="stop-color:#FF928E"/>
					<stop  offset="1" style="stop-color:#FE7062"/>
				</linearGradient>
				<path style="fill:url(#SVGID_00000070102712830534411200000013927301385370826118_);" d="M2932.087,1718.416h-104.982
					c-2.597,0-4.722-2.125-4.722-4.723v-33.334c0-2.598,2.125-4.723,4.722-4.723h104.982c2.597,0,4.723,2.125,4.723,4.723v33.334
					C2936.809,1716.291,2934.684,1718.416,2932.087,1718.416z"/>
				
					<linearGradient id="SVGID_00000016046954022076903100000013802911915858524567_" gradientUnits="userSpaceOnUse" x1="2822.3821" y1="1597.899" x2="2936.8093" y2="1597.899">
					<stop  offset="0" style="stop-color:#FF928E"/>
					<stop  offset="1" style="stop-color:#FE7062"/>
				</linearGradient>
				<path style="fill:url(#SVGID_00000016046954022076903100000013802911915858524567_);" d="M2932.087,1619.289h-104.982
					c-2.597,0-4.722-2.125-4.722-4.723v-33.334c0-2.597,2.125-4.723,4.722-4.723h104.982c2.597,0,4.723,2.125,4.723,4.723v33.334
					C2936.809,1617.164,2934.684,1619.289,2932.087,1619.289z"/>
				
					<linearGradient id="SVGID_00000103962850192630075340000007857443652293405830_" gradientUnits="userSpaceOnUse" x1="2822.3821" y1="1499.2806" x2="2936.8093" y2="1499.2806">
					<stop  offset="0" style="stop-color:#FF928E"/>
					<stop  offset="1" style="stop-color:#FE7062"/>
				</linearGradient>
				<path style="fill:url(#SVGID_00000103962850192630075340000007857443652293405830_);" d="M2932.087,1520.67h-104.982
					c-2.597,0-4.722-2.125-4.722-4.723v-33.334c0-2.598,2.125-4.723,4.722-4.723h104.982c2.597,0,4.723,2.125,4.723,4.723v33.334
					C2936.809,1518.545,2934.684,1520.67,2932.087,1520.67z"/>
			</g>
		</g>
		<g>
			<g>
				<path style="fill:#FFFFFF;" d="M1537.186,2205.702c3.632-4.398,5.589-10.186,5.001-16.312
					c-6.777-71.008,14.579-140.496,60.135-195.665c45.554-55.165,109.748-89.278,180.76-96.057
					c12.251-1.166,21.247-12.055,20.071-24.308c-1.167-12.257-12.052-21.246-24.31-20.074
					c-82.858,7.906-157.767,47.706-210.901,112.05l0,0c-53.139,64.351-78.046,145.424-70.137,228.287
					c1.168,12.258,12.052,21.246,24.31,20.074C1528.24,2213.115,1533.554,2210.1,1537.186,2205.702z"/>
			</g>
			<g>
				<path style="fill:#FFFFFF;" d="M1625.955,2197.229c3.632-4.398,5.589-10.185,5.001-16.312
					c-4.515-47.338,9.72-93.66,40.092-130.44c30.372-36.78,73.165-59.519,120.502-64.039c12.252-1.164,21.247-12.055,20.073-24.307
					c-1.168-12.258-12.052-21.245-24.31-20.074c-59.191,5.647-112.691,34.068-150.645,80.031
					c-37.954,45.963-55.744,103.872-50.093,163.063c1.168,12.258,12.052,21.245,24.31,20.074
					C1617.01,2204.642,1622.323,2201.627,1625.955,2197.229z"/>
			</g>
			<g>
				<path style="fill:#FFFFFF;" d="M1714.722,2188.759c3.632-4.398,5.589-10.185,5.002-16.311
					c-4.668-48.95,31.351-92.569,80.3-97.243c12.251-1.166,21.247-12.055,20.072-24.308c-1.169-12.258-12.052-21.245-24.31-20.074
					c-73.419,7.009-127.448,72.438-120.444,145.858c1.168,12.258,12.052,21.245,24.31,20.074
					C1705.777,2196.172,1711.09,2193.157,1714.722,2188.759z"/>
			</g>
		</g>
		<g>
			
				<linearGradient id="SVGID_00000054243812509153837050000003874177094685526676_" gradientUnits="userSpaceOnUse" x1="683.6272" y1="1031.8757" x2="607.6359" y2="1568.8813">
				<stop  offset="0" style="stop-color:#09005D"/>
				<stop  offset="1" style="stop-color:#1A0F91"/>
			</linearGradient>
			<path style="fill:url(#SVGID_00000054243812509153837050000003874177094685526676_);" d="M579.402,964.836
				c0,0-16.964,344.927-8.384,421.966c9.96,89.428,150.027,96.351,170.152,33.932c20.125-62.419-12.393-370.921-12.393-370.921
				L579.402,964.836z"/>
			
				<linearGradient id="SVGID_00000162312129782928033980000016489140945627888289_" gradientUnits="userSpaceOnUse" x1="-638.8723" y1="458.281" x2="-151.867" y2="1325.6497" gradientTransform="matrix(0.9165 0.4 -0.4 0.9165 1907.9244 581.2163)">
				<stop  offset="0" style="stop-color:#4F52FF"/>
				<stop  offset="1" style="stop-color:#4042E2"/>
			</linearGradient>
			<polygon style="fill:url(#SVGID_00000162312129782928033980000016489140945627888289_);" points="825.124,815.437 
				1628.13,878.052 1335.165,1529.253 695.045,1061.46 			"/>
			
				<ellipse transform="matrix(0.4 -0.9165 0.9165 0.4 -215.5933 2085.5327)" style="fill:#91B3FA;" cx="1485.139" cy="1207.437" rx="366.941" ry="74.765"/>
			
				<linearGradient id="SVGID_00000001635115197553518310000000307479990047898286_" gradientUnits="userSpaceOnUse" x1="2517.877" y1="398.2885" x2="1991.0037" y2="813.7074">
				<stop  offset="0" style="stop-color:#4F52FF"/>
				<stop  offset="1" style="stop-color:#4042E2"/>
			</linearGradient>
			<path style="fill:url(#SVGID_00000001635115197553518310000000307479990047898286_);" d="M1353.585,1523.009
				c-3.443-9.002-6.329-39.19,9.53-107.071c15.325-65.601,43.547-147.048,79.466-229.337
				c35.919-82.289,76.452-158.362,114.136-214.204c38.993-57.785,63.091-76.194,72.033-79.79c3.444,9.003,6.33,39.19-9.53,107.072
				c-15.325,65.601-43.547,147.048-79.466,229.337c-35.918,82.289-76.453,158.362-114.136,214.203
				C1386.626,1501.004,1362.528,1519.413,1353.585,1523.009z"/>
			<g>
				<defs>
					<path id="SVGID_00000177471377208598892500000005926242758261697705_" d="M1353.585,1523.009
						c-3.443-9.002-6.329-39.19,9.53-107.071c15.325-65.601,43.547-147.048,79.466-229.337
						c35.919-82.289,76.452-158.362,114.136-214.204c38.993-57.785,63.091-76.194,72.033-79.79c3.444,9.003,6.33,39.19-9.53,107.072
						c-15.325,65.601,38.509,182.865,2.59,265.154c-35.919,82.289-158.509,122.545-196.192,178.387
						C1386.626,1501.004,1362.528,1519.413,1353.585,1523.009z"/>
				</defs>
				<clipPath id="SVGID_00000058583958742936457900000015801957859790887078_">
					<use xlink:href="#SVGID_00000177471377208598892500000005926242758261697705_"  style="overflow:visible;"/>
				</clipPath>
				
					<linearGradient id="SVGID_00000046303756083594307640000009163646782761872262_" gradientUnits="userSpaceOnUse" x1="28.6456" y1="728.8381" x2="-502.1245" y2="759.2925" gradientTransform="matrix(0.9165 0.4 -0.4 0.9165 1907.9244 581.2163)">
					<stop  offset="0" style="stop-color:#09005D"/>
					<stop  offset="1" style="stop-color:#1A0F91"/>
				</linearGradient>
				
					<path style="clip-path:url(#SVGID_00000058583958742936457900000015801957859790887078_);fill:url(#SVGID_00000046303756083594307640000009163646782761872262_);" d="
					M1580.088,1243.64c-24.942,57.141-75.943,90.027-136.867,63.434c-60.924-26.593-90.094-94.473-65.152-151.614
					c24.942-57.141,94.55-81.905,155.474-55.312C1594.467,1126.741,1605.03,1186.499,1580.088,1243.64z"/>
			</g>
			
				<linearGradient id="SVGID_00000068678363912498355970000006472320750711936930_" gradientUnits="userSpaceOnUse" x1="947.4429" y1="-10.2145" x2="846.1213" y2="364.6755">
				<stop  offset="0" style="stop-color:#09005D"/>
				<stop  offset="1" style="stop-color:#1A0F91"/>
			</linearGradient>
			<path style="fill:url(#SVGID_00000068678363912498355970000006472320750711936930_);" d="M718.776,752.269
				c34.473,10.511,82.119,29.676,127.903,63.53c-54.973,80.232-92.274,172.586-114.134,275.534l-143.478-62.627
				c-22.875-9.985-35.128-35.115-28.833-59.268c12.619-48.413,37.104-128.352,73.112-185.422
				C651.417,755.375,686.382,742.392,718.776,752.269z"/>
			<path style="fill:#91B3FA;" d="M775.617,856.905L663.83,808.111c-3.794-1.656-6.274-5.107-6.633-9.232
				c-0.358-4.124,1.489-7.952,4.941-10.237c1.444-0.956,3.387-0.553,4.346,0.884c0.956,1.444,0.561,3.391-0.884,4.348
				c-1.504,0.996-2.309,2.664-2.154,4.462c0.157,1.797,1.238,3.303,2.893,4.025l111.786,48.794c2.452,1.07,5.315-0.053,6.385-2.504
				l3.472-7.955c1.07-2.452-0.054-5.315-2.505-6.385l-112.615-49.156c-1.588-0.693-2.313-2.542-1.62-4.129
				c0.693-1.587,2.541-2.313,4.129-1.62l112.615,49.156c5.622,2.454,8.198,9.024,5.745,14.643l-3.472,7.955
				C787.807,856.781,781.238,859.359,775.617,856.905z"/>
			<path style="fill:#91B3FA;" d="M744.039,902.062l-111.786-48.794c-3.794-1.656-6.274-5.107-6.632-9.231
				c-0.358-4.124,1.489-7.952,4.941-10.237c1.443-0.954,3.388-0.553,4.346,0.883c0.956,1.444,0.561,3.391-0.884,4.348
				c-1.505,0.996-2.309,2.664-2.154,4.463c0.157,1.797,1.238,3.303,2.893,4.025l111.786,48.794c2.452,1.07,5.315-0.052,6.385-2.504
				l3.472-7.953c1.07-2.451-0.053-5.317-2.505-6.387l-112.615-49.156c-1.588-0.693-2.313-2.542-1.62-4.129
				c0.693-1.587,2.541-2.313,4.129-1.62L756.41,873.72c5.622,2.454,8.198,9.023,5.744,14.645l-3.472,7.953
				C756.229,901.938,749.66,904.516,744.039,902.062z"/>
			<path style="fill:#91B3FA;" d="M934.2,841.96c-1.218-0.532-2.008-1.806-1.864-3.198c0.179-1.724,1.72-2.974,3.443-2.797
				l601.617,62.478c1.722,0.179,2.974,1.721,2.796,3.444c-0.179,1.724-1.721,2.974-3.443,2.797l-601.617-62.477
				C934.802,842.172,934.489,842.087,934.2,841.96z"/>
			<path style="fill:#91B3FA;" d="M850.021,839.982c-1.133-0.495-1.912-1.637-1.882-2.949c0.04-1.731,1.478-3.102,3.21-3.061
				l32.037,0.755c1.732,0.036,3.102,1.479,3.062,3.21c-0.041,1.731-1.478,3.102-3.21,3.061l-32.037-0.755
				C850.781,840.233,850.383,840.14,850.021,839.982z"/>
			<path style="fill:#91B3FA;" d="M728.698,964.395l-111.786-48.794c-3.794-1.656-6.273-5.107-6.632-9.231
				c-0.359-4.124,1.488-7.953,4.94-10.238c1.445-0.958,3.389-0.557,4.347,0.882c0.956,1.444,0.561,3.391-0.883,4.346
				c-1.506,0.998-2.312,2.667-2.155,4.467c0.157,1.797,1.237,3.303,2.892,4.025l111.786,48.794c2.452,1.07,5.316-0.055,6.386-2.506
				l3.472-7.953c1.07-2.452-0.054-5.315-2.505-6.385l-112.615-49.156c-1.588-0.693-2.313-2.542-1.62-4.129
				c0.693-1.587,2.541-2.313,4.129-1.62l112.616,49.156c5.622,2.454,8.198,9.023,5.745,14.643l-3.472,7.953
				C740.889,964.271,734.32,966.849,728.698,964.395z"/>
			<path style="fill:#91B3FA;" d="M711.073,1033.321l-111.786-48.794c-3.794-1.656-6.273-5.106-6.632-9.231
				c-0.358-4.124,1.488-7.953,4.94-10.238c1.446-0.957,3.39-0.557,4.347,0.882c0.956,1.444,0.561,3.391-0.884,4.346
				c-1.506,0.998-2.311,2.667-2.155,4.467c0.157,1.797,1.237,3.303,2.892,4.025l111.786,48.794c2.452,1.07,5.315-0.053,6.386-2.504
				l3.472-7.955c1.07-2.451-0.054-5.315-2.505-6.385L608.32,961.572c-1.588-0.693-2.313-2.542-1.62-4.129s2.541-2.313,4.129-1.62
				l112.615,49.156c5.622,2.454,8.198,9.023,5.745,14.643l-3.472,7.955C723.264,1033.197,716.695,1035.775,711.073,1033.321z"/>
			<path style="fill:#91B3FA;" d="M658.179,1426.812c-5.151-2.248-10.115-5.077-14.815-8.476
				c-20.566-14.872-32.527-37.935-32.816-63.274l-2.705-237.397c-0.021-1.731,1.368-3.15,3.1-3.172
				c1.733-0.021,3.151,1.371,3.171,3.102l2.705,237.397c0.267,23.329,11.282,44.566,30.221,58.26
				c18.612,13.464,41.749,17.225,63.482,10.327c1.165-0.37,2.343-0.758,3.532-1.163c1.639-0.559,3.422,0.315,3.981,1.956
				c0.559,1.639-0.316,3.422-1.956,3.981c-1.234,0.422-2.454,0.823-3.661,1.205C694.265,1435.318,675.209,1434.245,658.179,1426.812
				z"/>
			<path style="fill:#91B3FA;" d="M609.327,1085.402c-1.097-0.479-1.869-1.566-1.884-2.839l-0.302-26.484
				c-0.021-1.731,1.367-3.151,3.1-3.172c1.731-0.02,3.151,1.371,3.172,3.1l0.302,26.482c0.02,1.733-1.368,3.152-3.101,3.173
				C610.157,1085.669,609.721,1085.574,609.327,1085.402z"/>
			<path style="fill:#91B3FA;" d="M1565.057,1233.533c-1.495-0.653-2.252-2.36-1.699-3.921c10.234-28.865,9.641-53.974-1.762-74.63
				c-19.722-35.72-65.462-46.368-65.924-46.47c-1.697-0.386-2.752-2.057-2.371-3.747c0.379-1.69,2.058-2.753,3.748-2.372
				c1.988,0.447,48.967,11.395,70.039,49.556c12.309,22.294,13.043,49.129,2.183,79.757c-0.579,1.632-2.371,2.487-4.004,1.908
				C1565.195,1233.59,1565.126,1233.563,1565.057,1233.533z"/>
		</g>
		<g>
			
				<linearGradient id="SVGID_00000004542277063369874680000014310775059289572519_" gradientUnits="userSpaceOnUse" x1="1954.6211" y1="1447.5278" x2="1838.1012" y2="1857.8812">
				<stop  offset="0" style="stop-color:#4F52FF"/>
				<stop  offset="1" style="stop-color:#4042E2"/>
			</linearGradient>
			<path style="fill:url(#SVGID_00000004542277063369874680000014310775059289572519_);" d="M1294.615,2312.045
				c0.29-7.264,12.87-13.242,28.289-13.242h582.814c15.626,0,30.972,6.29,30.972,13.653v658.116c0,3.542-4.332,6.939-9.654,9.44
				c-5.323,2.501-13.209,3.901-20.726,3.892l-609.364-0.784c-7.582-0.01-15.006-1.453-20.31-4.006
				c-5.303-2.554-8.294-6.084-8.151-9.656L1294.615,2312.045z"/>
			<g style="opacity:0.44;">
				<g>
					<polygon style="fill:#7D97F4;" points="1723.827,2376.354 1889.858,2376.249 1891.175,2336.147 1724.983,2336.147 					"/>
					<polygon style="fill:#7D97F4;" points="1537.725,2376.333 1703.589,2376.229 1704.725,2336.147 1538.7,2336.147 					"/>
					<polygon style="fill:#7D97F4;" points="1351.811,2376.313 1517.509,2376.209 1518.464,2336.147 1352.606,2336.147 					"/>
				</g>
				<g>
					<polygon style="fill:#7D97F4;" points="1721.752,2448.334 1887.493,2448.384 1888.806,2408.544 1722.904,2408.512 					"/>
					<polygon style="fill:#7D97F4;" points="1535.974,2448.278 1701.549,2448.327 1702.682,2408.508 1536.946,2408.477 					"/>
					<polygon style="fill:#7D97F4;" points="1350.383,2448.221 1515.792,2448.271 1516.745,2408.472 1351.175,2408.44 					"/>
				</g>
				<g>
					<polygon style="fill:#7D97F4;" points="1719.684,2519.819 1885.137,2519.901 1886.445,2480.199 1720.832,2480.135 					"/>
					<polygon style="fill:#7D97F4;" points="1534.229,2519.727 1699.517,2519.809 1700.645,2480.128 1535.199,2480.064 					"/>
					<polygon style="fill:#7D97F4;" points="1348.961,2519.635 1514.082,2519.717 1515.031,2480.055 1349.75,2479.991 					"/>
				</g>
				<g>
					<polygon style="fill:#7D97F4;" points="1717.623,2591.057 1882.789,2591.17 1884.092,2551.606 1718.767,2551.51 					"/>
					<polygon style="fill:#7D97F4;" points="1532.491,2590.929 1697.492,2591.042 1698.616,2551.499 1533.456,2551.403 					"/>
					<polygon style="fill:#7D97F4;" points="1347.543,2590.802 1512.379,2590.915 1513.324,2551.391 1348.33,2551.296 					"/>
				</g>
				<g>
					<polygon style="fill:#7D97F4;" points="1715.57,2662.048 1880.449,2662.193 1881.748,2622.766 1716.71,2622.638 					"/>
					<polygon style="fill:#7D97F4;" points="1530.759,2661.885 1695.473,2662.03 1696.593,2622.623 1531.72,2622.496 					"/>
					<polygon style="fill:#7D97F4;" points="1346.131,2661.723 1510.681,2661.868 1511.624,2622.48 1346.915,2622.353 					"/>
				</g>
				<g>
					<polygon style="fill:#7D97F4;" points="1713.524,2732.795 1878.118,2732.971 1879.412,2693.68 1714.66,2693.521 					"/>
					<polygon style="fill:#7D97F4;" points="1529.032,2732.597 1693.461,2732.773 1694.578,2693.501 1529.99,2693.343 					"/>
					<polygon style="fill:#7D97F4;" points="1344.723,2732.4 1508.989,2732.576 1509.928,2693.324 1345.504,2693.165 					"/>
				</g>
				<g>
					<polygon style="fill:#7D97F4;" points="1711.484,2803.297 1875.794,2803.505 1877.084,2764.349 1712.617,2764.159 					"/>
					<polygon style="fill:#7D97F4;" points="1527.311,2803.065 1691.457,2803.272 1692.569,2764.136 1528.266,2763.946 					"/>
					<polygon style="fill:#7D97F4;" points="1343.32,2802.833 1507.303,2803.04 1508.239,2763.923 1344.099,2763.734 					"/>
				</g>
				<g>
					<polygon style="fill:#7D97F4;" points="1709.452,2873.558 1873.478,2873.796 1874.764,2834.775 1710.58,2834.554 					"/>
					<polygon style="fill:#7D97F4;" points="1525.596,2873.292 1689.459,2873.529 1690.568,2834.528 1526.548,2834.307 					"/>
					<polygon style="fill:#7D97F4;" points="1341.922,2873.025 1505.623,2873.263 1506.555,2834.28 1342.698,2834.059 					"/>
				</g>
				<g>
					<polygon style="fill:#7D97F4;" points="1707.427,2943.578 1871.17,2943.846 1872.452,2904.959 1708.552,2904.708 					"/>
					<polygon style="fill:#7D97F4;" points="1523.887,2943.276 1687.468,2943.545 1688.573,2904.677 1524.836,2904.425 					"/>
					<polygon style="fill:#7D97F4;" points="1340.529,2942.976 1503.948,2943.244 1504.878,2904.395 1341.303,2904.144 					"/>
				</g>
			</g>
		</g>
		<g>
			
				<linearGradient id="SVGID_00000051358166668172913110000005685455612580827828_" gradientUnits="userSpaceOnUse" x1="1292.5317" y1="2318.1924" x2="370.5031" y2="2910.9246">
				<stop  offset="0" style="stop-color:#4F52FF"/>
				<stop  offset="1" style="stop-color:#4042E2"/>
			</linearGradient>
			<path style="fill:url(#SVGID_00000051358166668172913110000005685455612580827828_);" d="M836.672,1811.784
				c0.17-8.591,7.601-15.505,16.709-15.505h552.417c9.23,0,19.033,7.126,19.033,15.835v1216.415c0,6.5-3.903,12.733-8.781,17.323
				c-4.878,4.591-12.072,7.16-18.962,7.142l-558.468-1.438c-6.949-0.018-13.745-2.667-18.606-7.353
				c-4.861-4.686-7.597-11.033-7.467-17.589L836.672,1811.784z"/>
			<g>
				
					<linearGradient id="SVGID_00000054233444626010802920000000023919623085948575_" gradientUnits="userSpaceOnUse" x1="1153.9181" y1="1871.5228" x2="1334.6259" y2="1871.5228">
					<stop  offset="0" style="stop-color:#DAE3FE"/>
					<stop  offset="1" style="stop-color:#E9EFFD"/>
				</linearGradient>
				<polygon style="fill:url(#SVGID_00000054233444626010802920000000023919623085948575_);" points="1153.918,1882.484 
					1334.626,1881.894 1334.559,1860.561 1154.053,1861.1 				"/>
				
					<linearGradient id="SVGID_00000067948629401897700660000018114830713706817433_" gradientUnits="userSpaceOnUse" x1="1153.4226" y1="1949.916" x2="1334.8746" y2="1949.916">
					<stop  offset="0" style="stop-color:#DAE3FE"/>
					<stop  offset="1" style="stop-color:#E9EFFD"/>
				</linearGradient>
				<polygon style="fill:url(#SVGID_00000067948629401897700660000018114830713706817433_);" points="1153.423,1961.061 
					1334.875,1960.279 1334.806,1938.771 1153.559,1939.5 				"/>
				
					<linearGradient id="SVGID_00000126300035792969892850000010530905385684365483_" gradientUnits="userSpaceOnUse" x1="1152.9229" y1="2028.9557" x2="1335.1238" y2="2028.9557">
					<stop  offset="0" style="stop-color:#DAE3FE"/>
					<stop  offset="1" style="stop-color:#E9EFFD"/>
				</linearGradient>
				<polygon style="fill:url(#SVGID_00000126300035792969892850000010530905385684365483_);" points="1152.923,2040.286 
					1335.124,2039.311 1335.055,2017.625 1153.06,2018.547 				"/>
				
					<linearGradient id="SVGID_00000085233912397330059730000002265378943038310826_" gradientUnits="userSpaceOnUse" x1="1152.4198" y1="2108.6516" x2="1335.3755" y2="2108.6516">
					<stop  offset="0" style="stop-color:#DAE3FE"/>
					<stop  offset="1" style="stop-color:#E9EFFD"/>
				</linearGradient>
				<polygon style="fill:url(#SVGID_00000085233912397330059730000002265378943038310826_);" points="1152.42,2120.171 
					1335.375,2118.998 1335.307,2097.133 1152.557,2098.251 				"/>
				
					<linearGradient id="SVGID_00000108996089795558539760000001022950777050215830_" gradientUnits="userSpaceOnUse" x1="1151.9117" y1="2189.009" x2="1335.6293" y2="2189.009">
					<stop  offset="0" style="stop-color:#DAE3FE"/>
					<stop  offset="1" style="stop-color:#E9EFFD"/>
				</linearGradient>
				<polygon style="fill:url(#SVGID_00000108996089795558539760000001022950777050215830_);" points="1151.912,2200.72 
					1335.629,2199.346 1335.559,2177.298 1152.051,2178.617 				"/>
				
					<linearGradient id="SVGID_00000003085502757068025070000007522483537280301739_" gradientUnits="userSpaceOnUse" x1="1150.8835" y1="2351.7463" x2="1336.1434" y2="2351.7463">
					<stop  offset="0" style="stop-color:#DAE3FE"/>
					<stop  offset="1" style="stop-color:#E9EFFD"/>
				</linearGradient>
				<polygon style="fill:url(#SVGID_00000003085502757068025070000007522483537280301739_);" points="1150.884,2363.848 
					1336.143,2362.063 1336.072,2339.644 1151.025,2341.372 				"/>
				
					<linearGradient id="SVGID_00000097473532430220660150000009055748173715089058_" gradientUnits="userSpaceOnUse" x1="1149.3071" y1="2601.0376" x2="1336.9305" y2="2601.0376">
					<stop  offset="0" style="stop-color:#DAE3FE"/>
					<stop  offset="1" style="stop-color:#E9EFFD"/>
				</linearGradient>
				<polygon style="fill:url(#SVGID_00000097473532430220660150000009055748173715089058_);" points="1149.307,2613.748 
					1336.931,2611.32 1336.858,2588.327 1149.453,2590.695 				"/>
				
					<linearGradient id="SVGID_00000127008552596955519770000000421439897310212013_" gradientUnits="userSpaceOnUse" x1="1151.3997" y1="2270.0374" x2="1335.8851" y2="2270.0374">
					<stop  offset="0" style="stop-color:#DAE3FE"/>
					<stop  offset="1" style="stop-color:#E9EFFD"/>
				</linearGradient>
				<polygon style="fill:url(#SVGID_00000127008552596955519770000000421439897310212013_);" points="1151.4,2281.942 
					1335.885,2280.365 1335.815,2258.132 1151.54,2259.655 				"/>
				
					<linearGradient id="SVGID_00000051360270362189435020000009770617857274362285_" gradientUnits="userSpaceOnUse" x1="1150.3622" y1="2434.144" x2="1336.4036" y2="2434.144">
					<stop  offset="0" style="stop-color:#DAE3FE"/>
					<stop  offset="1" style="stop-color:#E9EFFD"/>
				</linearGradient>
				<polygon style="fill:url(#SVGID_00000051360270362189435020000009770617857274362285_);" points="1150.362,2446.446 
					1336.404,2444.45 1336.332,2421.842 1150.505,2423.781 				"/>
				
					<linearGradient id="SVGID_00000149375463283663648610000013531367599496048780_" gradientUnits="userSpaceOnUse" x1="1149.837" y1="2517.238" x2="1336.6656" y2="2517.238">
					<stop  offset="0" style="stop-color:#DAE3FE"/>
					<stop  offset="1" style="stop-color:#E9EFFD"/>
				</linearGradient>
				<polygon style="fill:url(#SVGID_00000149375463283663648610000013531367599496048780_);" points="1149.837,2529.743 
					1336.666,2527.533 1336.594,2504.733 1149.981,2506.885 				"/>
				
					<linearGradient id="SVGID_00000098942617265740130430000013496716208366200734_" gradientUnits="userSpaceOnUse" x1="1148.7732" y1="2685.5518" x2="1337.198" y2="2685.5518">
					<stop  offset="0" style="stop-color:#DAE3FE"/>
					<stop  offset="1" style="stop-color:#E9EFFD"/>
				</linearGradient>
				<polygon style="fill:url(#SVGID_00000098942617265740130430000013496716208366200734_);" points="1148.773,2698.471 
					1337.198,2695.822 1337.124,2672.632 1148.92,2675.221 				"/>
				
					<linearGradient id="SVGID_00000178188142252853548340000000597428034325598608_" gradientUnits="userSpaceOnUse" x1="1148.2343" y1="2770.7905" x2="1337.467" y2="2770.7905">
					<stop  offset="0" style="stop-color:#DAE3FE"/>
					<stop  offset="1" style="stop-color:#E9EFFD"/>
				</linearGradient>
				<polygon style="fill:url(#SVGID_00000178188142252853548340000000597428034325598608_);" points="1148.234,2783.922 
					1337.467,2781.047 1337.392,2757.659 1148.382,2760.472 				"/>
				
					<linearGradient id="SVGID_00000103974319525326271990000005309521575752668578_" gradientUnits="userSpaceOnUse" x1="1147.691" y1="2856.7642" x2="1337.7382" y2="2856.7642">
					<stop  offset="0" style="stop-color:#DAE3FE"/>
					<stop  offset="1" style="stop-color:#E9EFFD"/>
				</linearGradient>
				<polygon style="fill:url(#SVGID_00000103974319525326271990000005309521575752668578_);" points="1147.691,2870.111 
					1337.738,2867.007 1337.664,2843.417 1147.84,2846.458 				"/>
				
					<linearGradient id="SVGID_00000150079855976552346250000017847642288775847840_" gradientUnits="userSpaceOnUse" x1="1147.1425" y1="2943.4788" x2="1338.0121" y2="2943.4788">
					<stop  offset="0" style="stop-color:#DAE3FE"/>
					<stop  offset="1" style="stop-color:#E9EFFD"/>
				</linearGradient>
				<polygon style="fill:url(#SVGID_00000150079855976552346250000017847642288775847840_);" points="1147.142,2957.044 
					1338.012,2953.708 1337.937,2929.913 1147.293,2933.187 				"/>
				
					<linearGradient id="SVGID_00000029746857291996020240000003227490741842096551_" gradientUnits="userSpaceOnUse" x1="916.9959" y1="1872.2607" x2="1099.0344" y2="1872.2607">
					<stop  offset="0" style="stop-color:#DAE3FE"/>
					<stop  offset="1" style="stop-color:#E9EFFD"/>
				</linearGradient>
				<polygon style="fill:url(#SVGID_00000029746857291996020240000003227490741842096551_);" points="916.996,1883.258 
					1098.838,1882.664 1099.034,1861.263 917.397,1861.805 				"/>
				
					<linearGradient id="SVGID_00000021806490293490093090000014770506079644025747_" gradientUnits="userSpaceOnUse" x1="915.5205" y1="1950.9032" x2="1098.3132" y2="1950.9032">
					<stop  offset="0" style="stop-color:#DAE3FE"/>
					<stop  offset="1" style="stop-color:#E9EFFD"/>
				</linearGradient>
				<polygon style="fill:url(#SVGID_00000021806490293490093090000014770506079644025747_);" points="915.521,1962.085 
					1098.115,1961.298 1098.313,1939.722 915.925,1940.455 				"/>
				
					<linearGradient id="SVGID_00000008121100362248181650000006890896741376661682_" gradientUnits="userSpaceOnUse" x1="914.0334" y1="2030.1967" x2="1097.5859" y2="2030.1967">
					<stop  offset="0" style="stop-color:#DAE3FE"/>
					<stop  offset="1" style="stop-color:#E9EFFD"/>
				</linearGradient>
				<polygon style="fill:url(#SVGID_00000008121100362248181650000006890896741376661682_);" points="914.033,2041.565 
					1097.386,2040.584 1097.586,2018.828 914.441,2019.756 				"/>
				
					<linearGradient id="SVGID_00000101789018393537352750000001704459423692181150_" gradientUnits="userSpaceOnUse" x1="912.5336" y1="2110.1501" x2="1096.854" y2="2110.1501">
					<stop  offset="0" style="stop-color:#DAE3FE"/>
					<stop  offset="1" style="stop-color:#E9EFFD"/>
				</linearGradient>
				<polygon style="fill:url(#SVGID_00000101789018393537352750000001704459423692181150_);" points="912.534,2121.708 
					1096.651,2120.528 1096.854,2098.592 912.946,2099.717 				"/>
				
					<linearGradient id="SVGID_00000067946052849635703960000003774302590078220947_" gradientUnits="userSpaceOnUse" x1="911.0217" y1="2190.7698" x2="1096.1141" y2="2190.7698">
					<stop  offset="0" style="stop-color:#DAE3FE"/>
					<stop  offset="1" style="stop-color:#E9EFFD"/>
				</linearGradient>
				<polygon style="fill:url(#SVGID_00000067946052849635703960000003774302590078220947_);" points="911.022,2202.521 
					1095.911,2201.138 1096.114,2179.019 911.437,2180.345 				"/>
				
					<linearGradient id="SVGID_00000168824065082344633620000007303713959083071130_" gradientUnits="userSpaceOnUse" x1="907.9591" y1="2354.0442" x2="1094.6173" y2="2354.0442">
					<stop  offset="0" style="stop-color:#DAE3FE"/>
					<stop  offset="1" style="stop-color:#E9EFFD"/>
				</linearGradient>
				<polygon style="fill:url(#SVGID_00000168824065082344633620000007303713959083071130_);" points="907.959,2366.189 
					1094.411,2364.392 1094.617,2341.899 908.381,2343.638 				"/>
				
					<linearGradient id="SVGID_00000036231482982968875660000010295173220965989259_" gradientUnits="userSpaceOnUse" x1="903.2671" y1="2604.175" x2="1092.3248" y2="2604.175">
					<stop  offset="0" style="stop-color:#DAE3FE"/>
					<stop  offset="1" style="stop-color:#E9EFFD"/>
				</linearGradient>
				<polygon style="fill:url(#SVGID_00000036231482982968875660000010295173220965989259_);" points="903.267,2616.933 
					1092.113,2614.488 1092.325,2591.417 903.7,2593.801 				"/>
				
					<linearGradient id="SVGID_00000027597165427879253320000004305365183236641422_" gradientUnits="userSpaceOnUse" x1="909.4969" y1="2272.0652" x2="1095.369" y2="2272.0652">
					<stop  offset="0" style="stop-color:#DAE3FE"/>
					<stop  offset="1" style="stop-color:#E9EFFD"/>
				</linearGradient>
				<polygon style="fill:url(#SVGID_00000027597165427879253320000004305365183236641422_);" points="909.497,2284.012 
					1095.165,2282.424 1095.369,2260.119 909.915,2261.65 				"/>
				
					<linearGradient id="SVGID_00000094583965632086977110000013760382163918040505_" gradientUnits="userSpaceOnUse" x1="906.4082" y1="2436.7175" x2="1093.8596" y2="2436.7175">
					<stop  offset="0" style="stop-color:#DAE3FE"/>
					<stop  offset="1" style="stop-color:#E9EFFD"/>
				</linearGradient>
				<polygon style="fill:url(#SVGID_00000094583965632086977110000013760382163918040505_);" points="906.408,2449.064 
					1093.651,2447.054 1093.86,2424.372 906.834,2426.321 				"/>
				
					<linearGradient id="SVGID_00000009582430147536063010000007330799830627832217_" gradientUnits="userSpaceOnUse" x1="904.8445" y1="2520.0911" x2="1093.0958" y2="2520.0911">
					<stop  offset="0" style="stop-color:#DAE3FE"/>
					<stop  offset="1" style="stop-color:#E9EFFD"/>
				</linearGradient>
				<polygon style="fill:url(#SVGID_00000009582430147536063010000007330799830627832217_);" points="904.844,2532.642 
					1092.885,2530.416 1093.096,2507.54 905.273,2509.706 				"/>
				
					<linearGradient id="SVGID_00000035518809821223820710000000998570875633755264_" gradientUnits="userSpaceOnUse" x1="901.6765" y1="2688.9788" x2="1091.5472" y2="2688.9788">
					<stop  offset="0" style="stop-color:#DAE3FE"/>
					<stop  offset="1" style="stop-color:#E9EFFD"/>
				</linearGradient>
				<polygon style="fill:url(#SVGID_00000035518809821223820710000000998570875633755264_);" points="901.677,2701.947 
					1091.333,2699.28 1091.547,2676.01 902.113,2678.617 				"/>
				
					<linearGradient id="SVGID_00000044167025506472648150000004925180533630355109_" gradientUnits="userSpaceOnUse" x1="900.0716" y1="2774.511" x2="1090.7631" y2="2774.511">
					<stop  offset="0" style="stop-color:#DAE3FE"/>
					<stop  offset="1" style="stop-color:#E9EFFD"/>
				</linearGradient>
				<polygon style="fill:url(#SVGID_00000044167025506472648150000004925180533630355109_);" points="900.072,2787.693 
					1090.547,2784.799 1090.763,2761.33 900.512,2764.162 				"/>
				
					<linearGradient id="SVGID_00000040575720980556036020000005639459562084324751_" gradientUnits="userSpaceOnUse" x1="898.453" y1="2860.7844" x2="1089.9724" y2="2860.7844">
					<stop  offset="0" style="stop-color:#DAE3FE"/>
					<stop  offset="1" style="stop-color:#E9EFFD"/>
				</linearGradient>
				<polygon style="fill:url(#SVGID_00000040575720980556036020000005639459562084324751_);" points="898.453,2874.183 
					1089.755,2871.058 1089.972,2847.386 898.897,2850.448 				"/>
				
					<linearGradient id="SVGID_00000103264458771332575150000003363315703907367579_" gradientUnits="userSpaceOnUse" x1="896.8209" y1="2947.8032" x2="1089.175" y2="2947.8032">
					<stop  offset="0" style="stop-color:#DAE3FE"/>
					<stop  offset="1" style="stop-color:#E9EFFD"/>
				</linearGradient>
				<polygon style="fill:url(#SVGID_00000103264458771332575150000003363315703907367579_);" points="896.821,2961.422 
					1088.955,2958.063 1089.175,2934.185 897.268,2937.48 				"/>
			</g>
		</g>
		<g>
			<path style="fill:#7D97F4;" d="M472.887,1975.656c0.082-6.622,2.533-12.927,6.796-17.483c4.265-4.555,9.981-6.974,15.851-6.71
				l446.019,20.163c7.655,0.346,13.649,7.551,13.468,16.187L932.38,3062.885l-450.988-6.204c-5.782-0.079-11.297-2.748-15.332-7.417
				c-4.035-4.669-6.257-10.957-6.177-17.475L472.887,1975.656z"/>
			<g>
				<g>
					<polygon style="fill:#91B3FA;" points="833.325,2143.217 899.228,2143.192 902.508,2035.78 836.181,2035.78 					"/>
					<polygon style="fill:#91B3FA;" points="730.624,2142.93 793.32,2142.897 795.92,2035.78 732.824,2035.78 					"/>
					<polygon style="fill:#91B3FA;" points="625.641,2142.637 690.833,2142.611 692.779,2035.78 627.175,2035.78 					"/>
					<polygon style="fill:#91B3FA;" points="521.234,2142.346 586.068,2142.319 587.351,2035.78 522.107,2035.78 					"/>
				</g>
				<g>
					<polygon style="fill:#91B3FA;" points="828.672,2317.952 893.886,2318.43 897.099,2213.438 831.47,2213.135 					"/>
					<polygon style="fill:#91B3FA;" points="727.04,2317.207 789.084,2317.662 791.631,2212.952 729.195,2212.664 					"/>
					<polygon style="fill:#91B3FA;" points="623.144,2316.444 687.661,2316.918 689.568,2212.482 624.646,2212.184 					"/>
					<polygon style="fill:#91B3FA;" points="519.812,2315.687 583.979,2316.157 585.236,2212.002 520.666,2211.705 					"/>
				</g>
				<g>
					<polygon style="fill:#91B3FA;" points="824.114,2488.713 888.655,2489.473 891.801,2386.623 826.854,2386.032 					"/>
					<polygon style="fill:#91B3FA;" points="723.529,2487.527 784.935,2488.251 787.43,2385.673 725.64,2385.11 					"/>
					<polygon style="fill:#91B3FA;" points="620.698,2486.315 684.554,2487.068 686.423,2384.752 622.169,2384.167 					"/>
					<polygon style="fill:#91B3FA;" points="518.418,2485.11 581.933,2485.858 583.163,2383.812 519.256,2383.229 					"/>
				</g>
				<g>
					<polygon style="fill:#91B3FA;" points="819.648,2656.022 883.528,2657.054 886.611,2556.282 822.334,2555.413 					"/>
					<polygon style="fill:#91B3FA;" points="720.089,2654.414 780.87,2655.396 783.314,2554.884 722.158,2554.057 					"/>
					<polygon style="fill:#91B3FA;" points="618.3,2652.77 681.51,2653.791 683.341,2553.532 619.742,2552.672 					"/>
					<polygon style="fill:#91B3FA;" points="517.052,2651.135 579.927,2652.15 581.133,2552.149 517.874,2551.294 					"/>
				</g>
				<g>
					<polygon style="fill:#91B3FA;" points="815.272,2819.984 878.504,2821.276 881.526,2722.519 817.904,2721.383 					"/>
					<polygon style="fill:#91B3FA;" points="716.717,2817.971 776.885,2819.2 779.281,2720.694 718.745,2719.613 					"/>
					<polygon style="fill:#91B3FA;" points="615.951,2815.912 678.527,2817.191 680.321,2718.927 617.364,2717.802 					"/>
					<polygon style="fill:#91B3FA;" points="515.714,2813.864 577.961,2815.136 579.144,2717.119 516.519,2716.001 					"/>
				</g>
				<g>
					<polygon style="fill:#91B3FA;" points="810.983,2980.698 873.581,2982.239 876.542,2885.438 813.562,2884.046 					"/>
					<polygon style="fill:#91B3FA;" points="713.412,2978.294 772.979,2979.762 775.328,2883.202 715.4,2881.876 					"/>
					<polygon style="fill:#91B3FA;" points="613.648,2975.839 675.603,2977.364 677.361,2881.036 615.033,2879.658 					"/>
					<polygon style="fill:#91B3FA;" points="514.402,2973.395 576.034,2974.913 577.193,2878.822 515.191,2877.452 					"/>
				</g>
			</g>
		</g>
		<g>
			
				<linearGradient id="SVGID_00000003786722432761979130000014214597657278068133_" gradientUnits="userSpaceOnUse" x1="495.7591" y1="2968.7842" x2="582.514" y2="2986.4802">
				<stop  offset="0" style="stop-color:#09005D"/>
				<stop  offset="1" style="stop-color:#1A0F91"/>
			</linearGradient>
			<path style="fill:url(#SVGID_00000003786722432761979130000014214597657278068133_);" d="M586.594,2966.478l-76.175-18.533
				c0,0-17.758,5.641-14.433,32.179c3.324,26.538,78.639,19.733,78.639,19.733L586.594,2966.478z"/>
			
				<linearGradient id="SVGID_00000119811243452310793820000002866639615336500611_" gradientUnits="userSpaceOnUse" x1="1564.2544" y1="2156.8508" x2="1219.7595" y2="2850.9072">
				<stop  offset="0" style="stop-color:#FF928E"/>
				<stop  offset="1" style="stop-color:#FE7062"/>
			</linearGradient>
			<path style="fill:url(#SVGID_00000119811243452310793820000002866639615336500611_);" d="M1251.403,2656.369
				c145.239,32.355,251.537,104.837,293.536,113.511c42,8.675,182.099,30.045,210.024,54.676c27.925,24.631,10.566,48.331,46.469,80
				c41.62,108.455-77.638,144.308-77.638,144.308L631.803,3068.2c0,0-73.503,8.527-76.494-44.048
				c-2.991-52.575,14.222-79.616,16.867-127.1c2.646-47.484,2.67-49.872,12.587-74.717c9.917-24.845,112.341-30.161,131.582-58.005
				c19.241-27.845,41.862-72.045,126.106-89.091C958.812,2651.695,1167.158,2637.602,1251.403,2656.369z"/>
			
				<linearGradient id="SVGID_00000125601259508674052240000006326133453662967428_" gradientUnits="userSpaceOnUse" x1="635.2939" y1="2749.1377" x2="696.0872" y2="1867.6387">
				<stop  offset="0" style="stop-color:#FEBBBA"/>
				<stop  offset="1" style="stop-color:#FF928E"/>
			</linearGradient>
			<path style="fill:url(#SVGID_00000125601259508674052240000006326133453662967428_);" d="M549.378,3021.186
				c3.439,60.431,105.702,47.065,106.148,47.014c0,0,79.909-64.51-32.176-59.219c-33.724,0.001-68.352-16.968-68.352-16.968
				L549.378,3021.186z"/>
			
				<linearGradient id="SVGID_00000047018497659187818070000015805189331605636483_" gradientUnits="userSpaceOnUse" x1="1731.5758" y1="2824.7437" x2="1792.3691" y2="1943.2429">
				<stop  offset="0" style="stop-color:#FEBBBA"/>
				<stop  offset="1" style="stop-color:#FF928E"/>
			</linearGradient>
			<path style="fill:url(#SVGID_00000047018497659187818070000015805189331605636483_);" d="M1808.778,2931.418
				c0,0,1.471,15.397-27.022,31.9c-35.316,20.455-160.248,2.197-160.248,2.197l-12.125,80.4l117.379,2.949
				C1724.04,3049.682,1880.484,3036.607,1808.778,2931.418z"/>
			
				<linearGradient id="SVGID_00000079463274660785244630000017006993597622352538_" gradientUnits="userSpaceOnUse" x1="1198.8672" y1="1830.3622" x2="1394.9625" y2="1499.8018" gradientTransform="matrix(0.998 -0.0625 0.0625 0.998 -69.7186 355.0107)">
				<stop  offset="0" style="stop-color:#09005D"/>
				<stop  offset="1" style="stop-color:#1A0F91"/>
			</linearGradient>
			<path style="fill:url(#SVGID_00000079463274660785244630000017006993597622352538_);" d="M762.367,2932.849
				c62.563-3.92,111.203,40.811,115.222,104.956c4.02,64.146-60.32,115.957-101.218,118.519
				c-40.898,2.563-125.439-19.48-130.356-97.944S703.251,2936.553,762.367,2932.849z"/>
			
				<linearGradient id="SVGID_00000172407579647928813850000017401013002817204374_" gradientUnits="userSpaceOnUse" x1="1948.0616" y1="-1211.1487" x2="2144.1558" y2="-1541.7068" gradientTransform="matrix(0.5777 -0.8162 0.8162 0.5777 1521.6566 5408.0801)">
				<stop  offset="0" style="stop-color:#09005D"/>
				<stop  offset="1" style="stop-color:#1A0F91"/>
			</linearGradient>
			<path style="fill:url(#SVGID_00000172407579647928813850000017401013002817204374_);" d="M1540.004,2962.753
				c32.849-46.414,96.354-48.024,143.942-14.344c47.588,33.68,43.322,101.341,21.848,131.682s-89.161,73.975-147.37,32.777
				C1500.215,3071.671,1508.965,3006.61,1540.004,2962.753z"/>
			<path style="fill:#91B3FA;" d="M753.105,2993.203c32.223-2.019,57.274,21.019,59.345,54.057
				c2.07,33.038-31.068,59.723-52.132,61.043c-21.064,1.32-64.607-10.034-67.139-50.446
				C690.646,3017.446,722.658,2995.111,753.105,2993.203z"/>
			<path style="fill:#91B3FA;" d="M1621.756,2986.611c25.466-1.596,45.265,16.612,46.902,42.723
				c1.636,26.111-24.554,47.2-41.201,48.244c-16.648,1.043-51.06-7.93-53.062-39.868
				C1572.393,3005.771,1597.693,2988.119,1621.756,2986.611z"/>
			<path style="fill:#91B3FA;" d="M736.876,2843.063c0,0-4.227-27.373,23.753-61.788c27.98-34.416,44.247-57.059,66.285-63.35
				c22.038-6.292,183.839-32.953,194.951-15.947c11.111,17.006,27.59,122.754,27.59,122.754L736.876,2843.063z"/>
			<path style="fill:#BDD0FB;" d="M829.783,2714.946c18.121-3.18,155.825-22.806,191.607-19.146l10.145,35.263l-294.799,111.989
				c0,0-2.003-22.566,12.282-45.234C773.02,2759.732,810.826,2717.83,829.783,2714.946z"/>
			<path style="fill:#91B3FA;" d="M1070.435,2700.7c5.027,20.388,24.181,119.926,24.181,119.926l351.078-10.694
				c0,0-113.31-98.851-198.81-112.751S1067.28,2689.936,1070.435,2700.7z"/>
			<path style="fill:#BDD0FB;" d="M1234.684,2689.943c-69.556-7.829-94.919-5.347-167.404,2.891l7.747,28.878
				c0,0,107.578-23.999,208.642-14.341C1283.669,2707.372,1257.39,2692.499,1234.684,2689.943z"/>
			
				<linearGradient id="SVGID_00000075873052283274482800000014365722168675933867_" gradientUnits="userSpaceOnUse" x1="2135.0818" y1="2534.5366" x2="1322.955" y2="2740.6289" gradientTransform="matrix(1.0938 -0.0685 0.0625 0.998 -616.7436 389.3108)">
				<stop  offset="0" style="stop-color:#9923BE"/>
				<stop  offset="1" style="stop-color:#EA5700"/>
			</linearGradient>
			<path style="fill:url(#SVGID_00000075873052283274482800000014365722168675933867_);" d="M935.328,2972.135
				c60.883-3.841,554.109-9.139,557.299-2.493c2.202,4.586-423.241,8.567-530.826,10.406
				C913.819,2980.977,919.692,2973.115,935.328,2972.135z"/>
			<path style="fill:#BDD0FB;" d="M1754.964,2824.556c0,0-57.359-16.769-70.074,28.563
				c-12.121,43.214,116.543,51.437,116.543,51.437S1790.325,2841.199,1754.964,2824.556z"/>
		</g>
		<g>
			
				<linearGradient id="SVGID_00000012435303735919277530000003935214627807938177_" gradientUnits="userSpaceOnUse" x1="883.162" y1="3174.5618" x2="1026.2216" y2="3174.5618" gradientTransform="matrix(-1 0 0 1 2861.6616 0)">
				<stop  offset="0" style="stop-color:#09005D"/>
				<stop  offset="1" style="stop-color:#1A0F91"/>
			</linearGradient>
			<path style="fill:url(#SVGID_00000012435303735919277530000003935214627807938177_);" d="M1835.443,3222.5
				c-0.017-1.077,0.055-2.168,0.332-3.267c16.29-64.583,82.896-97.686,82.896-97.686l32.039,2.512
				c18.42,56.922,30.298,84.709,27.339,100.26c-0.082,0.435-0.215,0.85-0.33,1.272
				C1951.291,3227.951,1896.893,3229.493,1835.443,3222.5z"/>
			
				<linearGradient id="SVGID_00000028303773702041467490000014683449359343711924_" gradientUnits="userSpaceOnUse" x1="1243.6675" y1="3000.377" x2="717.493" y2="3413.5308" gradientTransform="matrix(-1 0 0 1 2861.6616 0)">
				<stop  offset="0" style="stop-color:#53D8FF"/>
				<stop  offset="1" style="stop-color:#3840F7"/>
			</linearGradient>
			<path style="fill:url(#SVGID_00000028303773702041467490000014683449359343711924_);" d="M1977.719,3225.59
				c-1.427,5.192-5.26,9.235-10.167,10.267c-37.595,7.906-97.349,1.543-122.437-1.736c-5.534-0.723-9.581-5.842-9.672-11.621
				C1896.893,3229.493,1951.291,3227.951,1977.719,3225.59z"/>
			
				<linearGradient id="SVGID_00000129923364396150690250000017286490145095260840_" gradientUnits="userSpaceOnUse" x1="3743.3921" y1="3006.6924" x2="3714.8315" y2="3255.9497" gradientTransform="matrix(1 0 0 1 -1811.8352 0)">
				<stop  offset="0" style="stop-color:#FEBBBA"/>
				<stop  offset="1" style="stop-color:#FF928E"/>
			</linearGradient>
			<path style="fill:url(#SVGID_00000129923364396150690250000017286490145095260840_);" d="M1892.29,3071.689l14.028,67.528
				c1.028,4.949,4.829,8.654,9.436,9.087c5.637,0.529,13.661,0.839,21.732-0.347c7.236-1.063,12.276-8.417,10.993-16.309
				l-9.751-59.959H1892.29z"/>
			
				<linearGradient id="SVGID_00000013187555269017401690000014824990730581633967_" gradientUnits="userSpaceOnUse" x1="4228.269" y1="3122.9922" x2="3719.4402" y2="3522.5261" gradientTransform="matrix(1 0 0 1 -1811.8352 0)">
				<stop  offset="0" style="stop-color:#53D8FF"/>
				<stop  offset="1" style="stop-color:#3840F7"/>
			</linearGradient>
			<path style="fill:url(#SVGID_00000013187555269017401690000014824990730581633967_);" d="M2249.942,3225.029
				c-34.217-0.957-51.916-4.987-61.065-8.727c-0.021,3.403-0.002,6.864,0.108,10.452c0.119,3.832,2.957,6.893,6.448,6.87
				l187.875-1.213c5.996-0.039,9.499-6.992,6.901-12.49C2365.576,3221.957,2302.836,3226.51,2249.942,3225.029z"/>
			
				<linearGradient id="SVGID_00000176757161242124904010000000130094231423954061_" gradientUnits="userSpaceOnUse" x1="4000.7122" y1="3176.5947" x2="4202.0444" y2="3176.5947" gradientTransform="matrix(1 0 0 1 -1811.8352 0)">
				<stop  offset="0" style="stop-color:#09005D"/>
				<stop  offset="1" style="stop-color:#1A0F91"/>
			</linearGradient>
			<path style="fill:url(#SVGID_00000176757161242124904010000000130094231423954061_);" d="M2390.209,3219.921
				c-0.226-0.478-0.421-0.966-0.743-1.417c-16.592-23.183-58.85-69.348-142.355-89.371l-40.059-1.264
				c0,0-17.838,31.003-18.175,88.433c9.149,3.74,26.848,7.77,61.065,8.727C2302.836,3226.51,2365.576,3221.957,2390.209,3219.921z"
				/>
			
				<linearGradient id="SVGID_00000159454773704476379770000004464050269570085005_" gradientUnits="userSpaceOnUse" x1="4044.2566" y1="3038.5815" x2="4017.54" y2="3271.7456" gradientTransform="matrix(1 0 0 1 -1811.8352 0)">
				<stop  offset="0" style="stop-color:#FEBBBA"/>
				<stop  offset="1" style="stop-color:#FF928E"/>
			</linearGradient>
			<path style="fill:url(#SVGID_00000159454773704476379770000004464050269570085005_);" d="M2199.623,3067.159
				c0.445,2.986,5.935,48.369,8.061,65.965c0.505,4.182,3.534,7.417,7.353,7.874c6.821,0.814,17.859,1.556,27.516-0.424
				c5.209-1.067,8.98-6.073,8.98-11.892v-71.238L2199.623,3067.159z"/>
			
				<linearGradient id="SVGID_00000115515558422610414210000011240141503333371798_" gradientUnits="userSpaceOnUse" x1="2067.4912" y1="3031.1262" x2="2099.5413" y2="2026.9076">
				<stop  offset="0" style="stop-color:#09005D"/>
				<stop  offset="1" style="stop-color:#1A0F91"/>
			</linearGradient>
			<path style="fill:url(#SVGID_00000115515558422610414210000011240141503333371798_);" d="M1919.058,2184.94
				c0,0-64.102,569.799-28.49,925.922c0,0,42.735,0,64.103-7.122c0,0,66.611-557.117,88.16-716.538
				c0.813-6.009,9.391-6.283,10.571-0.334c26.588,134.122,131.016,660.079,143.433,709.75c0,0,35.613,14.245,64.103,0
				c0,0-56.981-762.105-99.716-897.433L1919.058,2184.94z"/>
			
				<linearGradient id="SVGID_00000032635494400755472800000007095464936276828584_" gradientUnits="userSpaceOnUse" x1="3601.2229" y1="717.2174" x2="3054.083" y2="1102.2419">
				<stop  offset="0" style="stop-color:#FF928E"/>
				<stop  offset="1" style="stop-color:#FE7062"/>
			</linearGradient>
			<path style="fill:url(#SVGID_00000032635494400755472800000007095464936276828584_);" d="M1790.853,1522.549
				c0,0,270.654-42.735,484.329,14.245l-14.245,220.797c0,0-56.981,306.266-99.716,441.594c0,0-163.817,28.49-242.164-14.245
				c0,0-64.102-384.614-99.715-441.594C1819.343,1743.345,1783.73,1593.774,1790.853,1522.549z"/>
			<g>
				<g>
					
						<linearGradient id="SVGID_00000166633592366523262030000000551053606560822719_" gradientUnits="userSpaceOnUse" x1="2260.8135" y1="1052.0898" x2="2132.4976" y2="1606.5973" gradientTransform="matrix(1 0 0 1 -123.206 0)">
						<stop  offset="0" style="stop-color:#FEBBBA"/>
						<stop  offset="1" style="stop-color:#FF928E"/>
					</linearGradient>
					<path style="fill:url(#SVGID_00000166633592366523262030000000551053606560822719_);" d="M1997.974,1351.073l-21.12,153.144
						c-0.05,0.366-0.229,0.689-0.384,1.024c-2.785,5.99,74.871,53.116,129.131-10.409l-30.637-147.45L1997.974,1351.073z"/>
					
						<linearGradient id="SVGID_00000134948670558687867270000017474449063752174729_" gradientUnits="userSpaceOnUse" x1="799.6884" y1="-257.5695" x2="965.7662" y2="-427.9608" gradientTransform="matrix(0.9332 -0.3594 0.3594 0.9332 1206.0315 2036.3817)">
						<stop  offset="0" style="stop-color:#FEBBBA"/>
						<stop  offset="1" style="stop-color:#FF928E"/>
					</linearGradient>
					<path style="fill:url(#SVGID_00000134948670558687867270000017474449063752174729_);" d="M1974.492,1325.17
						c0,0,6.521-54.683-14.855-62.835c-21.377-8.151-47.387,4.547-32.981,39.797
						C1944.576,1345.979,1974.492,1325.17,1974.492,1325.17z"/>
					
						<linearGradient id="SVGID_00000084510013818678355080000015984194568005945001_" gradientUnits="userSpaceOnUse" x1="229.2831" y1="-480.2292" x2="395.361" y2="-650.6207" gradientTransform="matrix(-0.9332 -0.3594 -0.3594 0.9332 2247.3254 2036.3817)">
						<stop  offset="0" style="stop-color:#FEBBBA"/>
						<stop  offset="1" style="stop-color:#FF928E"/>
					</linearGradient>
					<path style="fill:url(#SVGID_00000084510013818678355080000015984194568005945001_);" d="M2091.191,1322.388
						c0,0-6.522-54.683,14.855-62.835c21.377-8.151,47.387,4.547,32.981,39.797
						C2121.107,1343.197,2091.191,1322.388,2091.191,1322.388z"/>
					
						<linearGradient id="SVGID_00000142157772313328402510000006311169929848765102_" gradientUnits="userSpaceOnUse" x1="2030.4786" y1="1552.314" x2="2028.9004" y2="1189.3186">
						<stop  offset="0" style="stop-color:#FEBBBA"/>
						<stop  offset="1" style="stop-color:#FF928E"/>
					</linearGradient>
					<path style="fill:url(#SVGID_00000142157772313328402510000006311169929848765102_);" d="M1939.199,1226.907
						c63.28-56.31,123.62-63.511,179.73,0c-3.589,114.721-9.535,224.924-82.925,217.223
						C1959.961,1458.069,1950.533,1337.804,1939.199,1226.907z"/>
					
						<linearGradient id="SVGID_00000036936371673717393300000016222463950345932197_" gradientUnits="userSpaceOnUse" x1="1976.23" y1="1116.1012" x2="2135.6328" y2="1558.0096">
						<stop  offset="0" style="stop-color:#09005D"/>
						<stop  offset="1" style="stop-color:#1A0F91"/>
					</linearGradient>
					<path style="fill:url(#SVGID_00000036936371673717393300000016222463950345932197_);" d="M2102.536,1237.36
						c-0.115-5.448-0.096-10.91,0.216-16.408c0.062-1.096,0.163-2.265,0.841-3.129c1-1.275,17.411-1.458,23.877-1.173
						c0.888,31.952-23.199,201.35-29.007,216.337c-2.734,7.054-10.434,10.661-17.555,13.214c-11.958,4.286-24.794,5.85-37.421,5.925
						c-21.076,0.124-44.352-3.044-61.959-15.537c-22.949-16.284-33.957-144.271-37.757-160.759
						c-4.422-19.182-4.468-38.999-4.974-58.571c-0.016-0.623-0.021-1.29,0.321-1.811c0.406-0.62,1.184-0.862,1.904-1.039
						c12.679-3.116,18.754-2.026,18.091,10c-0.695,12.601-0.655,25.089,0.319,37.887c1.741,22.89,5.048,45.659,9.892,68.098
						c3.845,17.807,8.172,32.571,27.036,39.184c10.334,3.622,19.937-1.172,29.723-4.128c17.866-5.397,31.881,8.84,49.916,4.423
						c33.855-8.292,25.716-61.922,27.262-87.978C2104.151,1266.865,2102.849,1252.165,2102.536,1237.36z"/>
					
						<linearGradient id="SVGID_00000114055744332036538270000017796539329642243244_" gradientUnits="userSpaceOnUse" x1="1998.3442" y1="1108.1244" x2="2157.7466" y2="1550.0317">
						<stop  offset="0" style="stop-color:#09005D"/>
						<stop  offset="1" style="stop-color:#1A0F91"/>
					</linearGradient>
					<path style="fill:url(#SVGID_00000114055744332036538270000017796539329642243244_);" d="M2070.014,1098.521
						c20.685,5.05,30.238,18.309,36.87,36.936c5.849,16.429,23.925,28.104,27.238,45.454c0.372,1.95,0.327,3.953,0.246,5.936
						c-0.746,18.237-5.471,35.232-9.878,52.745c-1.556,6.182-2.102,8.703-10.065,7.171c-5.373-1.034-7.947-3.558-9.63-8.903
						c-2.283-7.252-1.463-15.325-7.05-21.285c-7.542-8.045-19.188-12.302-30.126-10.659c-4.067,0.611-7.986,1.95-12.003,2.837
						c-22.823,5.038-47.734-4.648-69.559,3.716c-12.931,4.956-23.634,16.835-27.024,30.319c-0.605,2.407-6.698,32.426-14.677,17.412
						c-10.594-19.939-15.301-47.305-17.911-69.557c-2.217-18.901-0.848-41.037,14.292-52.568
						c17.557-13.371,43.491-5.089,64.031-13.16c14.197-5.578,24.464-18.469,38.465-24.523
						C2051.71,1096.728,2061.123,1096.351,2070.014,1098.521z"/>
				</g>
				<g>
					
						<linearGradient id="SVGID_00000144303905655454040690000008023632387099459463_" gradientUnits="userSpaceOnUse" x1="2002.0436" y1="1148.2235" x2="1658.0994" y2="1472.1317">
						<stop  offset="0" style="stop-color:#FEBBBA"/>
						<stop  offset="1" style="stop-color:#FF928E"/>
					</linearGradient>
					<path style="fill:url(#SVGID_00000144303905655454040690000008023632387099459463_);" d="M2001.768,1126.785
						c3.478,6.497-12.45,23.969-26.488,32.082c-5.837,3.373-11.88,16.076-14.937,23.001c-3.844,8.709-6.06,18.021-6.507,27.533
						c-1.327,28.255,5.288,56.685-27.371,70.273c-27.745,11.544-30.806-4.875-38.322-25.792c1.751-54.23,29.188-96.13,73.176-130.65
						L2001.768,1126.785z"/>
					
						<linearGradient id="SVGID_00000178906621587713006930000012697641067986923449_" gradientUnits="userSpaceOnUse" x1="1998.5791" y1="1144.5446" x2="1654.635" y2="1468.4526">
						<stop  offset="0" style="stop-color:#FEBBBA"/>
						<stop  offset="1" style="stop-color:#FF928E"/>
					</linearGradient>
					<path style="fill:url(#SVGID_00000178906621587713006930000012697641067986923449_);" d="M1947.506,1259.15l-38.009,23.007
						c-48.443,25.908-86.037,66.523-110.112,96.191c-26.943-6.196-59.599-24.799-57.019-59.023
						c48.525-29.53,90.824-47.143,90.824-47.143C1931.948,1221.848,1947.506,1259.15,1947.506,1259.15z"/>
					
						<linearGradient id="SVGID_00000179642539351466231950000016442806994312806027_" gradientUnits="userSpaceOnUse" x1="3384.0098" y1="408.5394" x2="2836.8723" y2="793.5623">
						<stop  offset="0" style="stop-color:#FF928E"/>
						<stop  offset="1" style="stop-color:#FE7062"/>
					</linearGradient>
					<path style="fill:url(#SVGID_00000179642539351466231950000016442806994312806027_);" d="M1747.808,1315.47
						c2.277,20.594,26.208,36.861,61.977,50.764c-16.342,66.862-159.346,186.326,28.856,158.576
						c58.813,38.429,28.738,123.046,9.016,209.34C1492.257,1631.073,1562.689,1445.237,1747.808,1315.47z"/>
				</g>
				<g>
					
						<linearGradient id="SVGID_00000152969150358274129570000002946250624076421011_" gradientUnits="userSpaceOnUse" x1="2081.5161" y1="1158.9922" x2="2610.7886" y2="1596.4353">
						<stop  offset="0" style="stop-color:#FEBBBA"/>
						<stop  offset="1" style="stop-color:#FF928E"/>
					</linearGradient>
					<path style="fill:url(#SVGID_00000152969150358274129570000002946250624076421011_);" d="M2083.099,1123.231
						c-5.682,0-8.551,6.901-4.493,10.879c5.82,5.705,12.9,10.243,18.488,16.103c5.625,5.9,8.593,13.83,13.261,20.423
						c8.855,12.508,13.989,23.169,14.731,38.956c1.327,28.255-6.876,61.42,27.37,70.273c38.322,9.907,30.806-4.875,38.322-25.792
						c-1.751-54.23-29.188-96.13-70.985-130.842H2083.099z"/>
					
						<linearGradient id="SVGID_00000026158263448741687190000016372697301890622597_" gradientUnits="userSpaceOnUse" x1="2079.3447" y1="1161.6195" x2="2608.6174" y2="1599.0629">
						<stop  offset="0" style="stop-color:#FEBBBA"/>
						<stop  offset="1" style="stop-color:#FF928E"/>
					</linearGradient>
					<path style="fill:url(#SVGID_00000026158263448741687190000016372697301890622597_);" d="M2131.416,1259.343l38.009,23.007
						c48.442,25.907,86.037,66.523,110.112,96.191c26.943-6.196,59.599-24.799,57.019-59.023
						c-48.525-29.53-90.824-47.143-90.824-47.143C2146.974,1222.041,2131.416,1259.343,2131.416,1259.343z"/>
					
						<linearGradient id="SVGID_00000151518831985150246010000009652446911704289425_" gradientUnits="userSpaceOnUse" x1="3555.772" y1="652.6224" x2="3008.6331" y2="1037.6461">
						<stop  offset="0" style="stop-color:#FF928E"/>
						<stop  offset="1" style="stop-color:#FE7062"/>
					</linearGradient>
					<path style="fill:url(#SVGID_00000151518831985150246010000009652446911704289425_);" d="M2331.114,1315.662
						c-2.277,20.594-26.208,36.861-61.977,50.764c10.792,64.772,153.985,186.326-34.217,158.576
						c-58.813,38.429-17.355,123.046,2.367,209.34C2592.686,1631.265,2516.233,1445.429,2331.114,1315.662z"/>
				</g>
			</g>
		</g>
		<g>
			<g>
				<path style="fill:#BDD0FB;" d="M565.298,2031.665c5.259-4.955,8.633-11.92,8.862-19.714
					c2.696-90.326,40.516-174.299,106.492-236.449c65.973-62.147,152.052-94.888,242.383-92.193
					c15.583,0.469,28.611-11.797,29.069-27.385c0.469-15.592-11.794-28.609-27.386-29.073
					c-105.4-3.149-205.846,35.048-282.796,107.536l0,0c-76.958,72.495-121.071,170.469-124.217,275.877
					c-0.468,15.593,11.794,28.609,27.387,29.073C552.883,2039.571,560.038,2036.62,565.298,2031.665z"/>
			</g>
			<g>
				<path style="fill:#BDD0FB;" d="M678.218,2035.035c5.26-4.955,8.634-11.92,8.862-19.714
					c1.801-60.216,27.01-116.194,70.996-157.629c43.986-41.435,101.367-63.259,161.584-61.465
					c15.585,0.472,28.611-11.797,29.071-27.383c0.468-15.593-11.794-28.609-27.387-29.072
					c-75.294-2.25-147.032,25.025-201.998,76.805s-86.475,121.761-88.72,197.056c-0.468,15.592,11.794,28.609,27.387,29.072
					C665.803,2042.941,672.958,2039.99,678.218,2035.035z"/>
			</g>
			<g>
				<path style="fill:#BDD0FB;" d="M791.135,2038.409c5.26-4.955,8.633-11.92,8.863-19.713
					c1.863-62.266,54.028-111.406,116.294-109.55c15.583,0.469,28.611-11.797,29.069-27.385
					c0.467-15.593-11.794-28.609-27.387-29.072c-93.394-2.785-171.64,70.924-174.433,164.318
					c-0.468,15.593,11.794,28.609,27.387,29.073C778.72,2046.314,785.875,2043.363,791.135,2038.409z"/>
			</g>
		</g>
	</g>
</g>
</svg>
